<?xml version="1.0" encoding="UTF-8" standalone="no"?>
<!-- Generator: Adobe Illustrator 16.0.0, SVG Export Plug-In . SVG Version: 6.00 Build 0)  -->

<!-- source: https://publicdomainvectors.org/en/free-clipart/Outlined-pear/69405.html, public domain -->

<svg
   xmlns:dc="http://purl.org/dc/elements/1.1/"
   xmlns:cc="http://creativecommons.org/ns#"
   xmlns:rdf="http://www.w3.org/1999/02/22-rdf-syntax-ns#"
   xmlns:svg="http://www.w3.org/2000/svg"
   xmlns="http://www.w3.org/2000/svg"
   xmlns:sodipodi="http://sodipodi.sourceforge.net/DTD/sodipodi-0.dtd"
   xmlns:inkscape="http://www.inkscape.org/namespaces/inkscape"
   version="1.1"
   id="pear"
   x="0px"
   y="0px"
   width="250"
   height="250"
   viewBox="0 0 250 250"
   enable-background="new 0 0 172 266"
   xml:space="preserve"
   sodipodi:docname="favicon.svg"
   inkscape:version="0.92.5 (2060ec1f9f, 2020-04-08)"><metadata
   id="metadata45"><rdf:RDF><cc:Work
       rdf:about=""><dc:format>image/svg+xml</dc:format><dc:type
         rdf:resource="http://purl.org/dc/dcmitype/StillImage" /><dc:title></dc:title></cc:Work></rdf:RDF></metadata><defs
   id="defs43" /><sodipodi:namedview
   pagecolor="#ffffff"
   bordercolor="#666666"
   borderopacity="1"
   objecttolerance="10"
   gridtolerance="10"
   guidetolerance="10"
   inkscape:pageopacity="0"
   inkscape:pageshadow="2"
   inkscape:window-width="1920"
   inkscape:window-height="1080"
   id="namedview41"
   showgrid="false"
   inkscape:zoom="2.5094316"
   inkscape:cx="9.9909237"
   inkscape:cy="124.01359"
   inkscape:window-x="1920"
   inkscape:window-y="-37"
   inkscape:window-maximized="1"
   inkscape:current-layer="pear"
   fit-margin-top="0"
   fit-margin-left="0"
   fit-margin-right="0"
   fit-margin-bottom="0" />
<g
   id="pear_group"
   transform="translate(37.710868,-8.7332014)">
	<path
   d="m 81.306,65.086 c -3.417,0 -5.695,-2.277 -5.695,-5.695 0,-15.947 -12.531,-28.478 -28.478,-28.478 -3.418,0 -5.696,-2.278 -5.696,-5.696 0,-3.418 2.278,-5.695 5.696,-5.695 22.212,0 39.866,17.657 39.866,39.869 0,3.418 -2.275,5.695 -5.693,5.695"
   id="path2"
   inkscape:connector-curvature="0"
   style="fill:#014463" />
	<path
   d="m 86.999,53.695 c 9.116,0 17.66,-3.418 24.496,-9.684 6.262,-6.833 9.678,-15.376 9.678,-24.49 h -0.567 c -8.544,0 -17.087,3.418 -23.923,9.684 -6.263,6.834 -9.684,15.377 -9.684,24.49"
   id="path4"
   inkscape:connector-curvature="0"
   style="fill:#90c962" />
	<path
   d="m 87.572,65.086 c -2.278,0 -4.559,0 -6.836,-0.57 -2.277,-0.57 -4.555,-2.277 -4.555,-4.555 -2.278,-13.669 2.848,-28.478 12.531,-38.162 9.678,-9.681 24.49,-14.809 38.156,-12.528 2.28,0.567 4.561,2.278 4.561,4.555 2.274,13.669 -2.848,28.478 -12.531,38.162 -7.976,8.543 -19.935,13.098 -31.326,13.098 M 86.999,53.695 c 9.116,0 17.66,-3.418 24.496,-9.684 6.262,-6.833 9.678,-15.376 9.678,-24.49 h -0.567 c -8.544,0 -17.087,3.418 -23.923,9.684 -6.263,6.834 -9.684,15.377 -9.684,24.49"
   id="path6"
   inkscape:connector-curvature="0"
   style="fill:#014463" />
	<path
   d="m 87.572,48 c 8.543,0 17.087,-3.418 23.923,-9.683 5.122,-5.126 8.543,-11.391 9.683,-18.225 h 0.567 c 0,9.114 -3.415,17.657 -9.684,24.49 -7.402,5.696 -15.946,9.114 -25.057,9.114 10e-4,-1.708 10e-4,-3.988 0.568,-5.696"
   id="path8"
   inkscape:connector-curvature="0"
   style="fill:#61a345" />
	<path
   d="M 126.868,97.553 C 126.301,79.325 110.353,65.087 90.987,65.087 h -8.541 c -18.797,0 -34.744,14.809 -35.884,32.466 v 0.57 c -0.57,18.794 -6.265,35.311 -15.946,48.98 -8.543,11.391 -13.102,25.063 -12.531,39.869 1.71,33.033 30.755,60.377 65.499,60.377 h 7.404 c 34.746,0 63.791,-27.344 64.358,-60.377 0.573,-14.239 -3.982,-27.905 -12.525,-39.869 -9.685,-13.099 -15.38,-30.186 -15.953,-49.55 0,0.57 0,0.57 0,0"
   id="path10"
   inkscape:connector-curvature="0"
   style="fill:#ffcb5b" />
	<path
   d="m 90.42,258.733 h -7.403 c -40.439,0 -74.613,-31.893 -75.75,-71.762 -0.57,-17.087 4.555,-33.033 14.806,-46.705 8.543,-11.388 13.102,-26.197 13.672,-42.147 V 97.552 C 36.883,73.629 57.957,54.265 83.017,54.265 h 8.543 c 25.063,0 46.132,19.364 47.272,43.854 v 0.57 c 0.573,16.517 5.129,30.755 13.672,42.15 10.251,13.666 15.379,29.612 14.807,46.699 -1.708,39.303 -35.882,71.195 -76.891,71.195 M 83.017,65.086 c -18.794,0 -34.744,14.809 -35.881,32.466 v 0.567 c -0.57,18.797 -6.266,35.314 -15.95,48.983 -8.543,11.391 -13.098,25.063 -12.528,39.869 1.137,33.033 30.186,60.371 64.929,60.371 h 7.406 c 34.741,0 63.786,-27.338 64.359,-60.371 0.567,-14.239 -3.988,-27.911 -12.531,-39.869 C 132.57,134.003 127.442,116.916 126.875,98.119 V 97.552 C 126.302,79.324 110.354,65.086 90.993,65.086 Z"
   id="path12"
   inkscape:connector-curvature="0"
   style="fill:#014463" />
	<path
   d="M 142.82,147.103 C 132.569,134.004 127.441,116.917 126.874,98.12 v -0.57 c -0.573,-14.807 -11.392,-27.338 -25.631,-31.326 7.971,6.265 13.666,15.379 14.239,25.63 v 0.57 c 0.567,18.797 2.848,32.466 12.531,45.568 8.544,11.391 13.099,25.057 12.525,39.869 -1.134,33.033 -26.764,63.791 -61.511,63.791 h -7.403 c -8.543,0 -15.947,-1.713 -23.353,-4.562 10.253,6.27 22.212,10.258 34.744,10.258 h 7.403 c 34.746,0 63.791,-27.344 64.358,-60.377 1.143,-14.806 -3.413,-28.478 -11.956,-39.868"
   id="path14"
   inkscape:connector-curvature="0"
   style="fill:#d8a459" />
	<path
   d="m 38.021,173.306 h -1.707 c -2.848,-0.573 -5.129,-3.988 -3.988,-6.836 2.277,-9.116 6.836,-18.228 12.531,-25.63 3.416,-4.556 6.263,-9.111 7.974,-14.807 1.137,-2.848 4.555,-4.558 7.403,-3.418 2.848,1.137 4.558,4.555 3.418,7.403 -2.278,6.266 -5.696,11.961 -9.684,17.084 -5.125,6.836 -8.543,13.671 -10.25,21.643 -1.141,2.848 -3.418,4.561 -5.697,4.561"
   id="path16"
   inkscape:connector-curvature="0"
   style="fill:#ffe27a" />
	<path
   d="m 35.741,179.001 c 3.143,0 5.696,2.548 5.696,5.696 0,3.142 -2.553,5.694 -5.696,5.694 -3.145,0 -5.695,-2.553 -5.695,-5.694 0,-3.148 2.55,-5.696 5.695,-5.696"
   id="path18"
   inkscape:connector-curvature="0"
   style="fill:#ffe27a" />
	<path
   d="m 65.93,89.579 c 6.266,-6.266 10.251,-15.379 9.684,-24.49 -9.114,0 -17.657,3.415 -24.493,9.681 -6.833,6.266 -9.681,15.379 -9.681,24.493 9.11,0 17.654,-3.418 24.49,-9.684"
   id="path20"
   inkscape:connector-curvature="0"
   style="fill:#90c962" />
	<path
   d="m 42.007,110.651 c -2.277,0 -4.558,0 -6.835,-0.57 -2.278,-0.57 -4.556,-2.278 -4.556,-4.555 C 28.339,91.857 33.464,77.047 43.145,67.364 53.398,57.113 67.638,52.555 81.306,54.835 c 2.278,0.567 4.556,2.278 4.556,4.556 2.278,13.668 -2.848,28.478 -12.529,38.162 -7.974,8.543 -19.935,13.098 -31.326,13.098 M 41.437,99.26 c 9.113,0 17.657,-3.418 24.49,-9.683 6.266,-6.263 10.254,-15.376 9.684,-24.49 -9.113,0 -17.657,3.418 -24.49,9.684 -6.836,6.262 -9.684,15.375 -9.684,24.489"
   id="path22"
   inkscape:connector-curvature="0"
   style="fill:#014463" />
	<path
   d="m 42.007,93.564 c 8.543,0 17.087,-3.418 23.923,-9.684 5.125,-5.125 8.543,-11.392 9.681,-18.225 h 0.57 c 0,9.114 -3.418,17.657 -9.684,24.49 -7.403,5.695 -15.947,9.113 -25.06,9.113 0,-1.705 0,-3.986 0.57,-5.694"
   id="path24"
   inkscape:connector-curvature="0"
   style="fill:#61a345" />
	<g
   id="spots">
		<path
   d="m 55.065,171.944 c -4.488,0 -4.488,6.96 0,6.96 4.488,0 4.488,-6.96 0,-6.96 z"
   id="path26"
   inkscape:connector-curvature="0"
   style="fill:#d8a459" />
		<path
   d="m 58.862,186.751 c -6.451,0 -6.451,10.003 0,10.003 6.45,0 6.45,-10.003 0,-10.003 z"
   id="path28"
   inkscape:connector-curvature="0"
   style="fill:#d8a459" />
		<path
   d="m 51.268,204.52 c -1.94,0 -3.56,1.62 -3.56,3.561 0,1.941 1.62,3.56 3.56,3.56 1.94,0 3.56,-1.619 3.56,-3.56 0,-1.941 -1.62,-3.561 -3.56,-3.561 z"
   id="path30"
   inkscape:connector-curvature="0"
   style="fill:#d8a459" />
		<path
   d="m 68.354,206.977 c -5.831,0 -5.831,9.041 0,9.041 5.832,0 5.832,-9.041 0,-9.041 z"
   id="path32"
   inkscape:connector-curvature="0"
   style="fill:#d8a459" />
		<path
   d="m 71.012,222.794 c -1.708,0 -3.132,1.425 -3.132,3.132 0,1.708 1.425,3.133 3.132,3.133 1.707,0 3.133,-1.425 3.133,-3.133 0,-1.707 -1.425,-3.132 -3.133,-3.132 z"
   id="path34"
   inkscape:connector-curvature="0"
   style="fill:#d8a459" />
		<path
   d="m 88.858,218.194 c -5.073,0 -5.073,7.867 0,7.867 5.075,0.001 5.075,-7.867 0,-7.867 z"
   id="path36"
   inkscape:connector-curvature="0"
   style="fill:#d8a459" />
	</g>
</g>
</svg>
